# xmcd
#
# Track frame offsets: 
#        182
#        9102
#        22012
#        36560
#        50842
#        64397
#        83440
#        98130
#        111642
#        123385
#        136682
#        150975
#        160842
#        174210
#        186247
#        199925
#        212477
#        228947
#        246360
#
# Disc length: 3581 seconds
#
# Revision: 14
# Processed by: cddbd v1.5.2PL0 Copyright (c) Steve Scherf et al.
# Submitted via: ExactAudioCopy v0.99pb5
#
DISCID=fc0dfb13
DTITLE=Ray Charles - Ultimate Hits Collection [2 of 2]
DYEAR=1999
DGENRE=R&B
TTITLE0=Hit The Road Jack
TTITLE1=Unchain My Heart
TTITLE2=But On The Other Hand Baby
TTITLE3=Hide 'Nor Hair
TTITLE4=At The Club
TTITLE5=I Can't Stop Loving You
TTITLE6=You Don't Know Me
TTITLE7=You Are My Sunshine
TTITLE8=Don't Set Me Free
TTITLE9=Take These Chains From My Heart
TTITLE10=No One
TTITLE11=Busted
TTITLE12=Crying Time
TTITLE13=Together Again
TTITLE14=Let's Go Get Stoned
TTITLE15=Yesterday
TTITLE16=America The Beautiful
TTITLE17=Seven Spanish Angels (with Willie Nelson)
TTITLE18=I'll Be Good To You (with Quincy Jones and Chaka Khan)
EXTD=YEAR: 1999
EXTT0=
EXTT1=
EXTT2=
EXTT3=
EXTT4=
EXTT5=
EXTT6=
EXTT7=
EXTT8=
EXTT9=
EXTT10=
EXTT11=
EXTT12=
EXTT13=
EXTT14=
EXTT15=
EXTT16=
EXTT17=
EXTT18=
PLAYORDER=
